<svg xmlns="http://www.w3.org/2000/svg" width="15" height="18" viewBox="0 0 15 18">
    <path fill="#000" fill-rule="evenodd" d="M14.166 12.523c.293.375.524.71.693 1.003.17.294.186.588.05.881-.135.294-.354.464-.659.51-.304.048-.541.071-.71.071h-3.163c0 .834-.282 1.544-.846 2.131-.563.587-1.246.881-2.046.881-.8 0-1.483-.294-2.047-.88-.563-.588-.845-1.298-.845-2.132H1.497c-.259 0-.527-.032-.803-.097a.851.851 0 0 1-.6-.484c-.136-.293-.124-.596.034-.907.157-.311.372-.655.642-1.03.305-.411.637-.878.998-1.4.36-.523.541-1.066.541-1.63V5.76c0-.8.133-1.548.398-2.246a5.882 5.882 0 0 1 1.09-1.832A5.067 5.067 0 0 1 5.439.449C6.07.15 6.746 0 7.468 0 8.2 0 8.883.15 9.514.45c.632.299 1.182.71 1.65 1.232a5.796 5.796 0 0 1 1.099 1.832 6.28 6.28 0 0 1 .397 2.245V9.44c0 .576.172 1.133.516 1.674.344.54.674 1.01.99 1.409zM7.485 16.82c.485 0 .899-.18 1.243-.537.344-.358.516-.79.516-1.295H5.726c0 .505.172.937.516 1.295.344.358.758.537 1.243.537zm6.173-3.03a5.88 5.88 0 0 0-.186-.255 17.326 17.326 0 0 1-1.362-1.937c-.4-.652-.6-1.371-.6-2.158V5.76a4.99 4.99 0 0 0-.313-1.78 4.665 4.665 0 0 0-.854-1.444 4.068 4.068 0 0 0-1.277-.977 3.578 3.578 0 0 0-1.598-.361c-.564 0-1.091.12-1.581.36-.491.241-.917.567-1.277.978-.361.411-.643.893-.846 1.444a5.113 5.113 0 0 0-.305 1.78v3.68a3.74 3.74 0 0 1-.634 2.105 56.077 56.077 0 0 1-1.336 1.946 5.45 5.45 0 0 0-.194.3h12.363z"/>
</svg>
