<svg xmlns="http://www.w3.org/2000/svg" width="20" height="14" viewBox="0 0 20 14">
	<path fill="#FFF" fill-rule="evenodd"
		  d="M19.98 1.406c.013.026.02.052.02.078v10.079c0 .52-.13 1.015-.39 1.484-.261.469-.652.703-1.172.703H2.188c-.521 0-1.016-.234-1.485-.703C.234 12.578 0 12.083 0 11.562V1.485c0-.026.007-.052.02-.078a.455.455 0 0 1 0-.263.706.706 0 0 1 .136-.245.32.32 0 0 0 .04-.048A.147.147 0 0 1 .253.8c.195-.26.472-.458.83-.595A3.07 3.07 0 0 1 2.188 0h16.25c.416 0 .751.088 1.005.264.254.175.42.44.498.79a.489.489 0 0 1 .05.167.604.604 0 0 1-.01.185zM1.895 1.25c-.105 0-.209.007-.313.02L10 7.988l8.438-6.738H1.895zM18.438 12.5c.169 0 .263-.114.283-.342.02-.228.029-.426.029-.595V2.617l-8.34 6.66a.777.777 0 0 1-.195.118.573.573 0 0 1-.215.039.573.573 0 0 1-.215-.04.777.777 0 0 1-.195-.117l-8.34-6.66v8.945c0 .17.114.368.342.596.228.228.426.342.596.342h16.25z"/>
</svg>
