<svg xmlns="http://www.w3.org/2000/svg" viewBox="0 0 20 17.5">
	<path fill="#818181" fill-rule="evenodd"
		  d="M18.75,0A1.23,1.23,0,0,1,20,1.25V12.52a1.23,1.23,0,0,1-1.25,1.25H8.42L4.81,17.32a.56.56,0,0,1-.43.18.75.75,0,0,1-.26,0,.61.61,0,0,1-.27-.23.65.65,0,0,1-.1-.36v-3.1H1.25a1.21,1.21,0,0,1-.89-.36A1.21,1.21,0,0,1,0,12.52V1.25A1.23,1.23,0,0,1,1.25,0Zm0,12.52V1.25H1.25V12.52H5v2.87l2.91-2.87Zm-14.37-5a.65.65,0,0,1-.63-.63.63.63,0,0,1,.63-.62H15.63a.67.67,0,0,1,.44.18.63.63,0,0,1,.18.45.65.65,0,0,1-.62.62Zm0-2.5a.65.65,0,0,1-.63-.63.63.63,0,0,1,.63-.62H15.63a.67.67,0,0,1,.44.18.63.63,0,0,1,.18.45.65.65,0,0,1-.62.62Zm0,5a.65.65,0,0,1-.63-.63.63.63,0,0,1,.63-.62h7.5a.67.67,0,0,1,.44.18.63.63,0,0,1,.18.45.65.65,0,0,1-.62.62Z"
	/>
</svg>