<svg xmlns="http://www.w3.org/2000/svg" width="18" height="21" viewBox="0 0 18 21">
    <path fill="#FFF" fill-rule="evenodd" d="M15.23 7.875c.765 0 1.418.256 1.959.769.54.513.811 1.131.811 1.856v7.875c0 .725-.27 1.343-.811 1.856-.541.513-1.194.769-1.958.769H2.769c-.764 0-1.417-.256-1.958-.769C.271 19.718 0 19.1 0 18.375V10.5c0-.725.27-1.343.811-1.856.541-.513 1.194-.769 1.958-.769h.693V5.373a5.5 5.5 0 0 1 .4-2.092A5.146 5.146 0 0 1 4.987 1.57 5.261 5.261 0 0 1 6.728.42C7.406.14 8.156 0 8.978 0c.808 0 1.554.14 2.24.42.685.28 1.272.66 1.763 1.139.49.478.872 1.045 1.146 1.702.274.656.411 1.36.411 2.112v2.502h.693zM4.847 5.373v2.502h8.308V5.373c0-1.135-.386-2.095-1.158-2.881-.771-.786-1.777-1.18-3.018-1.18-1.254 0-2.257.397-3.007 1.19-.75.793-1.125 1.75-1.125 2.871zm11.77 13.002V10.5a1.23 1.23 0 0 0-.412-.923 1.368 1.368 0 0 0-.973-.39H2.769c-.375 0-.7.13-.973.39a1.23 1.23 0 0 0-.411.923v7.875c0 .355.137.663.41.923.275.26.6.39.974.39h12.462c.375 0 .7-.13.973-.39a1.23 1.23 0 0 0 .411-.923zM9 11.812c.39 0 .718.127.984.38.267.253.4.564.4.933 0 .246-.064.468-.194.667-.13.198-.296.352-.498.46v2.154a.615.615 0 0 1-.205.462.684.684 0 0 1-.487.195.684.684 0 0 1-.487-.195.615.615 0 0 1-.205-.462v-2.153a1.366 1.366 0 0 1-.498-.461 1.19 1.19 0 0 1-.195-.667c0-.37.134-.68.4-.933.267-.253.596-.38.985-.38z"/>
</svg>
