<svg xmlns="http://www.w3.org/2000/svg" viewBox="0 0 37.56 57">
	<path fill="#818181"
		  d="M23.41,3.57,3.56,30.12l14.61.05-4,23.26L34,24.76,19.4,24.7Zm0-3.57h.17A3.54,3.54,0,0,1,26,1.09a3.42,3.42,0,0,1,.89,3.32L23.69,21.19H34A3.55,3.55,0,0,1,37.55,25a3.87,3.87,0,0,1-.64,1.84l-20,28.67a4,4,0,0,1-1.23,1.09,3.17,3.17,0,0,1-1.51.36,4.56,4.56,0,0,1-.75-.06,2.2,2.2,0,0,1-.7-.22A3.66,3.66,0,0,1,11,55.13a3.39,3.39,0,0,1-.39-2.31l3.29-19.13L3.56,33.63a3.53,3.53,0,0,1-1.87-.53A3.51,3.51,0,0,1,0,29.78a3.91,3.91,0,0,1,.64-1.84l20-26.44a.44.44,0,0,0,.08-.11,2.4,2.4,0,0,1,.45-.5,2.36,2.36,0,0,1,.42-.28,2.32,2.32,0,0,1,.69-.42A4,4,0,0,1,23.13,0Z"/>
</svg>