<svg xmlns="http://www.w3.org/2000/svg" width="12" height="12" viewBox="0 0 12 12">
	<path fill="#4C4C4C" fill-rule="evenodd"
		  d="M11.895 11.355c.07.07.105.159.105.264a.358.358 0 0 1-.105.264.369.369 0 0 1-.269.117.369.369 0 0 1-.269-.117L7.735 8.227c-.413.359-.88.64-1.402.843a4.534 4.534 0 0 1-1.66.305 4.54 4.54 0 0 1-1.822-.37 4.79 4.79 0 0 1-1.49-1.001A4.64 4.64 0 0 1 0 4.688 4.64 4.64 0 0 1 1.361 1.37 4.79 4.79 0 0 1 2.851.37 4.54 4.54 0 0 1 4.674 0c.639 0 1.242.123 1.81.37A4.685 4.685 0 0 1 8.98 2.86c.246.57.369 1.18.369 1.827 0 .57-.098 1.112-.292 1.624a4.87 4.87 0 0 1-.795 1.377l3.634 3.667zM4.674 8.637c.537 0 1.046-.104 1.525-.31.479-.208.895-.491 1.25-.85.354-.36.635-.778.841-1.254a3.82 3.82 0 0 0 .31-1.535 3.82 3.82 0 0 0-.31-1.536 4.073 4.073 0 0 0-.841-1.254 3.921 3.921 0 0 0-1.25-.85 3.803 3.803 0 0 0-1.525-.31c-.545 0-1.058.104-1.537.31-.479.208-.896.491-1.25.85-.354.36-.635.778-.841 1.254a3.82 3.82 0 0 0-.31 1.535c0 .547.103 1.06.31 1.536.206.476.487.894.841 1.254.354.359.771.642 1.25.85.48.206.992.31 1.537.31z"/>
</svg>
