<svg xmlns="http://www.w3.org/2000/svg" viewBox="0 0 19.41 4.92">
	<path d="M17.21,4.92h-.59a.09.09,0,0,1-.06,0,2.32,2.32,0,0,1-1.43-.74,2.2,2.2,0,0,1-.64-1.44,2.41,2.41,0,0,1,.4-1.62,2.37,2.37,0,0,1,1.34-1l.22-.07.23,0h.59l.05,0a2.47,2.47,0,0,1,1.32.63A2.45,2.45,0,0,1,19.36,2l0,.12a.5.5,0,0,0,0,.12v.53a.11.11,0,0,1,0,0l0,.06a2.3,2.3,0,0,1-.62,1.3,2.39,2.39,0,0,1-1.25.71l-.15,0-.14,0ZM2.21,0h.58l.06,0A2.41,2.41,0,0,1,4.29.79a2.28,2.28,0,0,1,.63,1.46A2.51,2.51,0,0,1,4.5,3.86a2.34,2.34,0,0,1-1.34,1L3,4.87l-.22,0H2.15l-.06,0A2.53,2.53,0,0,1,.83,4.31,2.58,2.58,0,0,1,.1,3.13c0-.07,0-.14,0-.2a1.17,1.17,0,0,1,0-.2V2.19l0,0s0,0,0-.05a2.43,2.43,0,0,1,1.89-2l.13,0,.15,0ZM9.43,0H10l.07,0a2.44,2.44,0,0,1,1.43.77,2.24,2.24,0,0,1,.64,1.46,2.62,2.62,0,0,1-.47,1.65,2.33,2.33,0,0,1-1.37.92l-.17,0-.18,0H9.43l0,0-.06,0a2.29,2.29,0,0,1-1.44-.76,2.22,2.22,0,0,1-.63-1.46A2.58,2.58,0,0,1,7.71,1,2.33,2.33,0,0,1,9.08.08l.18,0,.17,0Z"
		  fill="#818181" fill-rule="evenodd"/>
</svg>